<?xml version="1.0" encoding="UTF-8" standalone="no"?>
<svg
   xmlns:dc="http://purl.org/dc/elements/1.1/"
   xmlns:cc="http://creativecommons.org/ns#"
   xmlns:rdf="http://www.w3.org/1999/02/22-rdf-syntax-ns#"
   xmlns:svg="http://www.w3.org/2000/svg"
   xmlns="http://www.w3.org/2000/svg"
   xmlns:sodipodi="http://sodipodi.sourceforge.net/DTD/sodipodi-0.dtd"
   xmlns:inkscape="http://www.inkscape.org/namespaces/inkscape"
   id="svg8"
   version="1.1"
   viewBox="0 0 210 297"
   height="297mm"
   width="210mm"
   inkscape:version="1.0 (1.0+r73+1)"
   sodipodi:docname="cogs17mm.svg">
  <defs
     id="defs2" />
  <sodipodi:namedview
     id="base"
     pagecolor="#ffffff"
     bordercolor="#666666"
     borderopacity="1.0"
     inkscape:pageopacity="0.0"
     inkscape:pageshadow="2"
     inkscape:zoom="0.35"
     inkscape:cx="262.85714"
     inkscape:cy="560"
     inkscape:document-units="mm"
     inkscape:current-layer="layer1"
     inkscape:document-rotation="0"
     showgrid="false"
     inkscape:window-width="1370"
     inkscape:window-height="836"
     inkscape:window-x="70"
     inkscape:window-y="27"
     inkscape:window-maximized="1" />
  <metadata
     id="metadata5">
    <rdf:RDF>
      <cc:Work
         rdf:about="">
        <dc:format>image/svg+xml</dc:format>
        <dc:type
           rdf:resource="http://purl.org/dc/dcmitype/StillImage" />
        <dc:title></dc:title>
      </cc:Work>
    </rdf:RDF>
  </metadata>
  <g
     inkscape:label="Layer 1"
     inkscape:groupmode="layer"
     id="layer1">
    <g
       id="g865"
       transform="matrix(10.243609,0,0,10.243609,100.64501,102.69435)"
       inkscape:label="Rendered Gears"
       inkscape:export-xdpi="6.3363948"
       inkscape:export-ydpi="6.3363948"
       style="fill:none;fill-opacity:1;stroke:#000000;stroke-opacity:1">
      <path
         id="path861"
         d="m 4.94083,-1.05958 1.24965,-0.26799 0.41762,0.01314 1.80152,0.85881 V 0.45562 L 6.6081,1.31443 6.19048,1.32757 4.94083,1.05958 4.24293,2.74446 5.31607,3.4386 5.60208,3.74319 6.26867,5.62432 5.62432,6.26867 3.74319,5.60208 3.4386,5.31607 2.74446,4.24293 1.05958,4.94083 1.32757,6.19048 1.31443,6.6081 0.45562,8.40962 H -0.45562 L -1.31443,6.6081 -1.32757,6.19048 -1.05958,4.94083 -2.74446,4.24293 -3.4386,5.31607 -3.74319,5.60208 -5.62432,6.26867 -6.26867,5.62432 -5.60208,3.74319 -5.31607,3.4386 -4.24293,2.74446 -4.94083,1.05958 -6.19048,1.32757 -6.6081,1.31443 -8.40962,0.45562 v -0.91124 l 1.80152,-0.85881 0.41762,-0.01314 1.24965,0.26799 0.6979,-1.68488 -1.07314,-0.69414 -0.28601,-0.30459 -0.66659,-1.88113 0.64435,-0.64435 1.88113,0.66659 0.30459,0.28601 0.69414,1.07314 1.68488,-0.6979 -0.26799,-1.24965 0.01314,-0.41762 0.85881,-1.80152 h 0.91124 l 0.85881,1.80152 0.01314,0.41762 -0.26799,1.24965 1.68488,0.6979 0.69414,-1.07314 0.30459,-0.28601 1.88113,-0.66659 0.64435,0.64435 -0.66659,1.88113 -0.28601,0.30459 -1.07314,0.69414 z"
         style="fill:none;fill-opacity:1;stroke:#000000;stroke-width:0.264583;stroke-opacity:1" />
      <circle
         id="path863"
         style="fill:none;fill-opacity:1;stroke:#000000;stroke-width:0.264583;stroke-opacity:1"
         cx="0"
         cy="0"
         r="2.6458333" />
    </g>
  </g>
</svg>
